<svg xmlns="http://www.w3.org/2000/svg" viewBox="0 0 420 600" role="img" aria-label="表里乾坤牌背">
  <defs>
    <radialGradient id="lacquer" cx="50%" cy="42%" r="70%">
      <stop offset="0" stop-color="#4b1114"/>
      <stop offset="0.42" stop-color="#1a090b"/>
      <stop offset="1" stop-color="#070506"/>
    </radialGradient>
    <linearGradient id="gold" x1="0" y1="0" x2="1" y2="1">
      <stop offset="0" stop-color="#fff2b7"/>
      <stop offset="0.22" stop-color="#c7983d"/>
      <stop offset="0.56" stop-color="#f8df8a"/>
      <stop offset="1" stop-color="#7d4c1a"/>
    </linearGradient>
    <pattern id="grain" width="16" height="16" patternUnits="userSpaceOnUse">
      <path d="M0 8h16M8 0v16" stroke="#d3a74d" stroke-opacity=".09" stroke-width="1"/>
      <circle cx="4" cy="4" r=".8" fill="#f5d77a" fill-opacity=".16"/>
      <circle cx="12" cy="10" r=".7" fill="#f5d77a" fill-opacity=".1"/>
    </pattern>
    <filter id="shadow" x="-20%" y="-20%" width="140%" height="140%">
      <feDropShadow dx="0" dy="18" stdDeviation="16" flood-color="#000" flood-opacity=".55"/>
    </filter>
  </defs>
  <rect x="14" y="14" width="392" height="572" rx="26" fill="url(#lacquer)" filter="url(#shadow)"/>
  <rect x="26" y="26" width="368" height="548" rx="18" fill="none" stroke="url(#gold)" stroke-width="4"/>
  <rect x="42" y="42" width="336" height="516" rx="12" fill="url(#grain)" stroke="#8a5a24" stroke-width="1.4"/>
  <path d="M210 82c46 39 76 87 76 137 0 67-35 111-76 169-41-58-76-102-76-169 0-50 30-98 76-137Z" fill="none" stroke="url(#gold)" stroke-width="4"/>
  <path d="M125 302h170M158 250h104M176 196h68" stroke="url(#gold)" stroke-width="3" stroke-linecap="round" opacity=".86"/>
  <circle cx="210" cy="287" r="70" fill="none" stroke="url(#gold)" stroke-width="3"/>
  <circle cx="210" cy="287" r="42" fill="#080505" stroke="#d1a34c" stroke-width="2"/>
  <path d="M210 232l15 36 39 4-30 25 9 38-33-20-33 20 9-38-30-25 39-4 15-36Z" fill="url(#gold)" opacity=".9"/>
  <path d="M83 99c36 8 58 27 65 57M337 99c-36 8-58 27-65 57M83 501c36-8 58-27 65-57M337 501c-36-8-58-27-65-57" fill="none" stroke="url(#gold)" stroke-width="3" stroke-linecap="round" opacity=".72"/>
  <g fill="#d8aa52" opacity=".85">
    <circle cx="78" cy="78" r="5"/><circle cx="342" cy="78" r="5"/><circle cx="78" cy="522" r="5"/><circle cx="342" cy="522" r="5"/>
  </g>
</svg>
